<svg width="657.9px" height="120.8px" xmlns="http://www.w3.org/2000/svg" viewBox="-78.94127197265624 14.595079040527345 657.8825439453125 120.80984191894531" style="background: rgba(0, 0, 0, 0)" preserveAspectRatio="xMidYMid"><defs><linearGradient id="editing-gradient-gradient" x1="0" x2="1" y1="0.5" y2="0.5" gradientUnits="objectBoundingBox"><stop offset="0" stop-color="#0082ff"></stop><stop offset="1" stop-color="rgba(60%, 0%, 100%, 0.79)"></stop></linearGradient></defs><g><g transform="matrix(1.4,0,0,1.4,-60.2,165.5)"><path d="M 3.7 -46.4 L -10.3 -46.4 L -2.1 -88.6 L 12 -88.6 L 3.7 -46.4 Z M 59.4 -45.1 L 59.4 -45.1 L 59.4 -45.1 Q 51.7 -45.1 51.7 -51.1 L 51.7 -51.1 L 51.7 -51.1 Q 51.7 -53.7 52.8 -58.8 L 52.8 -58.8 L 52.8 -58.8 Q 53.9 -63.9 54.3 -66 L 54.3 -66 L 54.3 -66 Q 55.2 -70.6 55.2 -72.1 L 55.2 -72.1 L 55.2 -72.1 Q 55.2 -75.4 52.8 -75.4 L 52.8 -75.4 L 52.8 -75.4 Q 51.2 -75.4 49.7 -73.2 L 49.7 -73.2 L 49.7 -73.2 Q 48.1 -71 47.4 -66.5 L 47.4 -66.5 L 43.4 -46.4 L 31 -45.1 L 34.4 -62.5 L 34.4 -62.5 Q 35 -65.4 35.5 -68.6 L 35.5 -68.6 L 35.5 -68.6 Q 36 -71.9 36 -72.4 L 36 -72.4 L 36 -72.4 Q 36 -75.4 33.8 -75.4 L 33.8 -75.4 L 33.8 -75.4 Q 32.4 -75.4 30.8 -73.2 L 30.8 -73.2 L 30.8 -73.2 Q 29.2 -71 28.3 -66.5 L 28.3 -66.5 L 24.4 -46.4 L 11.8 -45.1 L 18.5 -79 L 28.9 -80.3 L 27.8 -73.8 L 27.8 -73.8 Q 29.5 -77.3 32.6 -78.8 L 32.6 -78.8 L 32.6 -78.8 Q 35.6 -80.3 40.4 -80.3 L 40.4 -80.3 L 40.4 -80.3 Q 43.2 -80.3 45 -79 L 45 -79 L 45 -79 Q 46.8 -77.6 47.3 -75.4 L 47.3 -75.4 L 47.3 -75.4 Q 48.4 -77.7 51.2 -79 L 51.2 -79 L 51.2 -79 Q 54 -80.3 57.4 -80.3 L 57.4 -80.3 L 57.4 -80.3 Q 60.9 -80.3 62.5 -79.6 L 62.5 -79.6 L 62.5 -79.6 Q 64.2 -78.8 65.3 -77.6 L 65.3 -77.6 L 65.3 -77.6 Q 67 -75.4 67 -71.3 L 67 -71.3 L 67 -71.3 Q 67 -67.2 65.3 -58.9 L 65.3 -58.9 L 65.3 -58.9 Q 64.4 -54.8 64.4 -53.3 L 64.4 -53.3 L 64.4 -53.3 Q 64.4 -51.8 65.2 -50.9 L 65.2 -50.9 L 65.2 -50.9 Q 66.1 -50 67.4 -49.8 L 67.4 -49.8 L 67.4 -49.8 Q 66.7 -47.7 64.5 -46.4 L 64.5 -46.4 L 64.5 -46.4 Q 62.3 -45.1 59.4 -45.1 Z M 75.1 -48.3 L 75.1 -48.3 L 75.1 -48.3 Q 73.6 -50 72.9 -52.6 L 72.9 -52.6 L 72.9 -52.6 Q 72.2 -55.2 72.2 -59.5 L 72.2 -59.5 L 72.2 -59.5 Q 72.2 -63.8 73.7 -67.7 L 73.7 -67.7 L 73.7 -67.7 Q 75.2 -71.6 77.9 -74.4 L 77.9 -74.4 L 77.9 -74.4 Q 83.4 -80.3 92.5 -80.3 L 92.5 -80.3 L 92.5 -80.3 Q 95.7 -80.3 98.1 -79.2 L 98.1 -79.2 L 109 -80.3 L 104.3 -55.3 L 104.3 -55.3 Q 104.1 -54.6 104.1 -53.2 L 104.1 -53.2 L 104.1 -53.2 Q 104.1 -51.8 105 -50.9 L 105 -50.9 L 105 -50.9 Q 105.8 -50 107.1 -49.8 L 107.1 -49.8 L 107.1 -49.8 Q 106.5 -47.7 104.1 -46.4 L 104.1 -46.4 L 104.1 -46.4 Q 101.8 -45.1 99.2 -45.1 L 99.2 -45.1 L 99.2 -45.1 Q 96.6 -45.1 94.8 -46.1 L 94.8 -46.1 L 94.8 -46.1 Q 93 -47.1 92.5 -48.7 L 92.5 -48.7 L 92.5 -48.7 Q 91.5 -47.1 89.3 -46.1 L 89.3 -46.1 L 89.3 -46.1 Q 87.2 -45.1 84.2 -45.1 L 84.2 -45.1 L 84.2 -45.1 Q 81.3 -45.1 79 -45.9 L 79 -45.9 L 79 -45.9 Q 76.6 -46.6 75.1 -48.3 Z M 88.6 -74.3 L 88.6 -74.3 L 88.6 -74.3 Q 87.9 -73.1 87.2 -71.2 L 87.2 -71.2 L 87.2 -71.2 Q 86.6 -69.2 85.5 -64 L 85.5 -64 L 85.5 -64 Q 84.5 -58.8 84.5 -55.1 L 84.5 -55.1 L 84.5 -55.1 Q 84.5 -51.4 85 -50.3 L 85 -50.3 L 85 -50.3 Q 85.6 -49.2 86.6 -49.2 L 86.6 -49.2 L 86.6 -49.2 Q 88.7 -49.2 90.2 -51.1 L 90.2 -51.1 L 90.2 -51.1 Q 91.7 -53.1 92.3 -56.6 L 92.3 -56.6 L 95.7 -75.3 L 95.7 -75.3 Q 94.3 -76.5 92.8 -76.5 L 92.8 -76.5 L 92.8 -76.5 Q 91.2 -76.5 90.3 -75.9 L 90.3 -75.9 L 90.3 -75.9 Q 89.3 -75.4 88.6 -74.3 Z M 116.8 -73.1 L 116.8 -73.1 L 116.8 -73.1 Q 119 -76.2 122.3 -78.2 L 122.3 -78.2 L 122.3 -78.2 Q 125.6 -80.3 129.6 -80.3 L 129.6 -80.3 L 129.6 -80.3 Q 133.6 -80.3 135.5 -79 L 135.5 -79 L 148.1 -80.3 L 143.7 -55.7 L 143.7 -55.7 Q 141.5 -43.2 136.8 -38.2 L 136.8 -38.2 L 136.8 -38.2 Q 132.2 -33.6 123.4 -33.6 L 123.4 -33.6 L 123.4 -33.6 Q 116.7 -33.6 112.8 -35.7 L 112.8 -35.7 L 112.8 -35.7 Q 109 -37.8 109 -41.3 L 109 -41.3 L 109 -41.3 Q 109 -43.9 111 -45.4 L 111 -45.4 L 111 -45.4 Q 112.9 -47 116 -47 L 116 -47 L 116 -47 Q 118.7 -47 120.8 -45.7 L 120.8 -45.7 L 120.8 -45.7 Q 122 -45.1 122.5 -44.2 L 122.5 -44.2 L 122.5 -44.2 Q 121.1 -42.9 121.1 -40.8 L 121.1 -40.8 L 121.1 -40.8 Q 121.1 -38.1 123.6 -38.1 L 123.6 -38.1 L 123.6 -38.1 Q 127.9 -38.1 130.4 -48.2 L 130.4 -48.2 L 130.4 -48.2 Q 131.1 -50.9 131.6 -53.7 L 131.6 -53.7 L 131.6 -53.7 Q 128.8 -50.2 122.2 -50.2 L 122.2 -50.2 L 122.2 -50.2 Q 117.7 -50.2 115.1 -52.3 L 115.1 -52.3 L 115.1 -52.3 Q 112.4 -54.5 112.4 -59.6 L 112.4 -59.6 L 112.4 -59.6 Q 112.4 -62.8 113.5 -66.4 L 113.5 -66.4 L 113.5 -66.4 Q 114.6 -70.1 116.8 -73.1 Z M 125.1 -59.4 L 125.1 -59.4 L 125.1 -59.4 Q 125.1 -55.1 127.3 -55.1 L 127.3 -55.1 L 127.3 -55.1 Q 128.9 -55.1 130.4 -56.7 L 130.4 -56.7 L 130.4 -56.7 Q 131.5 -58.1 132 -60.1 L 132 -60.1 L 135.2 -76.5 L 135.2 -76.5 Q 134.9 -76.6 134.6 -76.7 L 134.6 -76.7 L 134.6 -76.7 Q 133.9 -77 133.1 -77 L 133.1 -77 L 133.1 -77 Q 129.2 -77 126.9 -70.6 L 126.9 -70.6 L 126.9 -70.6 Q 125.1 -65.6 125.1 -59.4 Z M 176.5 -57.2 L 176.5 -57.2 L 176.5 -57.2 Q 178.1 -56.1 178.1 -53.7 L 178.1 -53.7 L 178.1 -53.7 Q 178.1 -51.3 176.9 -49.8 L 176.9 -49.8 L 176.9 -49.8 Q 175.7 -48.2 173.7 -47.2 L 173.7 -47.2 L 173.7 -47.2 Q 169.6 -45.1 165.2 -45.1 L 165.2 -45.1 L 165.2 -45.1 Q 160.8 -45.1 158.2 -46.1 L 158.2 -46.1 L 158.2 -46.1 Q 155.6 -47 153.8 -48.8 L 153.8 -48.8 L 153.8 -48.8 Q 150.5 -52.2 150.5 -58.4 L 150.5 -58.4 L 150.5 -58.4 Q 150.5 -68.1 155.7 -74 L 155.7 -74 L 155.7 -74 Q 161.3 -80.3 171.1 -80.3 L 171.1 -80.3 L 171.1 -80.3 Q 177.2 -80.3 180.2 -77.7 L 180.2 -77.7 L 180.2 -77.7 Q 182.5 -75.8 182.5 -72.7 L 182.5 -72.7 L 182.5 -72.7 Q 182.5 -61.4 163 -61.4 L 163 -61.4 L 163 -61.4 Q 162.7 -59.8 162.7 -58.3 L 162.7 -58.3 L 162.7 -58.3 Q 162.7 -55.4 164.1 -54.3 L 164.1 -54.3 L 164.1 -54.3 Q 165.4 -53.2 167.8 -53.2 L 167.8 -53.2 L 167.8 -53.2 Q 170.2 -53.2 172.8 -54.3 L 172.8 -54.3 L 172.8 -54.3 Q 175.4 -55.4 176.5 -57.2 Z M 163.4 -64.2 L 163.4 -64.2 L 163.4 -64.2 Q 168 -64.2 170.6 -67 L 170.6 -67 L 170.6 -67 Q 173.2 -69.7 173.2 -74 L 173.2 -74 L 173.2 -74 Q 173.2 -75.4 172.7 -76.2 L 172.7 -76.2 L 172.7 -76.2 Q 172.1 -77 171.1 -77 L 171.1 -77 L 171.1 -77 Q 170 -77 169 -76.6 L 169 -76.6 L 169 -76.6 Q 168.1 -76.2 167.2 -74.8 L 167.2 -74.8 L 167.2 -74.8 Q 164.8 -71.6 163.4 -64.2 Z M 203.8 -68.8 L 203.8 -68.8 L 203.8 -68.8 Q 204.7 -71.2 204.7 -73.3 L 204.7 -73.3 L 204.7 -73.3 Q 204.7 -77 201.6 -77 L 201.6 -77 L 201.6 -77 Q 200 -77 198.7 -75.6 L 198.7 -75.6 L 198.7 -75.6 Q 197.4 -74.2 197.4 -72.4 L 197.4 -72.4 L 197.4 -72.4 Q 197.4 -71.1 198.4 -70.1 L 198.4 -70.1 L 198.4 -70.1 Q 199.9 -68.6 203.6 -66.3 L 203.6 -66.3 L 203.6 -66.3 Q 207.4 -64 208.9 -62.2 L 208.9 -62.2 L 208.9 -62.2 Q 210.3 -60.3 210.3 -57.7 L 210.3 -57.7 L 210.3 -57.7 Q 210.3 -55.1 209 -52.7 L 209 -52.7 L 209 -52.7 Q 207.8 -50.3 205.6 -48.7 L 205.6 -48.7 L 205.6 -48.7 Q 200.8 -45.1 193.1 -45.1 L 193.1 -45.1 L 193.1 -45.1 Q 188.9 -45.1 185.7 -47.3 L 185.7 -47.3 L 185.7 -47.3 Q 182.5 -49.4 182.5 -51.9 L 182.5 -51.9 L 182.5 -51.9 Q 182.5 -54.4 184.3 -55.8 L 184.3 -55.8 L 184.3 -55.8 Q 186.2 -57.3 188.9 -57.3 L 188.9 -57.3 L 188.9 -57.3 Q 191.5 -57.3 193.2 -56.3 L 193.2 -56.3 L 193.2 -56.3 Q 192.4 -54.2 192.4 -52.8 L 192.4 -52.8 L 192.4 -52.8 Q 192.4 -48.6 196 -48.6 L 196 -48.6 L 196 -48.6 Q 197.5 -48.6 198.5 -49.5 L 198.5 -49.5 L 198.5 -49.5 Q 199.5 -50.5 199.5 -52.1 L 199.5 -52.1 L 199.5 -52.1 Q 199.5 -55.4 194 -58.9 L 194 -58.9 L 194 -58.9 Q 189.6 -61.8 188.5 -63 L 188.5 -63 L 188.5 -63 Q 186.8 -65 186.8 -67.6 L 186.8 -67.6 L 186.8 -67.6 Q 186.8 -70.1 188 -72.6 L 188 -72.6 L 188 -72.6 Q 189.2 -75 191.5 -76.7 L 191.5 -76.7 L 191.5 -76.7 Q 196.1 -80.3 204.3 -80.3 L 204.3 -80.3 L 204.3 -80.3 Q 208.4 -80.3 210.9 -78.6 L 210.9 -78.6 L 210.9 -78.6 Q 213.4 -77 213.4 -74.2 L 213.4 -74.2 L 213.4 -74.2 Q 213.4 -71.3 211.7 -69.7 L 211.7 -69.7 L 211.7 -69.7 Q 210 -68.1 206.9 -68.1 L 206.9 -68.1 L 206.9 -68.1 Q 204.8 -68.1 203.8 -68.8 Z M 254.8 -67 L 267.8 -68.1 L 267.8 -68.1 Q 263.2 -58 263.2 -46.3 L 263.2 -46.3 L 263.2 -46.3 Q 261.4 -45.1 258.9 -45.1 L 258.9 -45.1 L 258.9 -45.1 Q 256.4 -45.1 254.8 -46.3 L 254.8 -46.3 L 254.8 -46.3 Q 253.2 -47.5 252.9 -48.7 L 252.9 -48.7 L 252.9 -48.7 Q 251.3 -47 248.7 -46.1 L 248.7 -46.1 L 248.7 -46.1 Q 246.1 -45.1 243.3 -45.1 L 243.3 -45.1 L 243.3 -45.1 Q 240.6 -45.1 238.2 -46 L 238.2 -46 L 238.2 -46 Q 235.8 -46.9 233.9 -48.9 L 233.9 -48.9 L 233.9 -48.9 Q 229.8 -53.2 229.8 -61.5 L 229.8 -61.5 L 229.8 -61.5 Q 229.8 -74.3 236.7 -82 L 236.7 -82 L 236.7 -82 Q 243.7 -89.9 256.2 -89.9 L 256.2 -89.9 L 256.2 -89.9 Q 264.8 -89.9 267.9 -85.4 L 267.9 -85.4 L 267.9 -85.4 Q 268.9 -84 268.9 -82.3 L 268.9 -82.3 L 268.9 -82.3 Q 268.9 -80.6 268.1 -79.2 L 268.1 -79.2 L 268.1 -79.2 Q 267.4 -77.7 266.2 -76.6 L 266.2 -76.6 L 266.2 -76.6 Q 263.5 -74 260.1 -74 L 260.1 -74 L 260.1 -74 Q 258.7 -74 257.5 -74.5 L 257.5 -74.5 L 257.5 -74.5 Q 257.7 -76.4 257.7 -78.6 L 257.7 -78.6 L 257.7 -78.6 Q 257.7 -80.9 257.6 -81.9 L 257.6 -81.9 L 257.6 -81.9 Q 257.4 -82.9 257 -83.8 L 257 -83.8 L 257 -83.8 Q 256.2 -85.5 254.4 -85.5 L 254.4 -85.5 L 254.4 -85.5 Q 252.5 -85.5 250.5 -83.5 L 250.5 -83.5 L 250.5 -83.5 Q 248.5 -81.6 246.9 -78.4 L 246.9 -78.4 L 246.9 -78.4 Q 243.4 -71.2 243.4 -62.6 L 243.4 -62.6 L 243.4 -62.6 Q 243.4 -58.6 244.9 -55.8 L 244.9 -55.8 L 244.9 -55.8 Q 246.6 -52.7 249.5 -52.7 L 249.5 -52.7 L 249.5 -52.7 Q 250.5 -52.7 251.5 -53.2 L 251.5 -53.2 L 251.5 -53.2 Q 252.4 -53.7 252.8 -54.1 L 252.8 -54.1 L 254.8 -67 Z M 273.7 -48.3 L 273.7 -48.3 L 273.7 -48.3 Q 272.2 -50 271.5 -52.6 L 271.5 -52.6 L 271.5 -52.6 Q 270.8 -55.2 270.8 -59.5 L 270.8 -59.5 L 270.8 -59.5 Q 270.8 -63.8 272.3 -67.7 L 272.3 -67.7 L 272.3 -67.7 Q 273.8 -71.6 276.5 -74.4 L 276.5 -74.4 L 276.5 -74.4 Q 282 -80.3 291.1 -80.3 L 291.1 -80.3 L 291.1 -80.3 Q 294.3 -80.3 296.7 -79.2 L 296.7 -79.2 L 307.6 -80.3 L 302.9 -55.3 L 302.9 -55.3 Q 302.7 -54.6 302.7 -53.2 L 302.7 -53.2 L 302.7 -53.2 Q 302.7 -51.8 303.6 -50.9 L 303.6 -50.9 L 303.6 -50.9 Q 304.4 -50 305.7 -49.8 L 305.7 -49.8 L 305.7 -49.8 Q 305.1 -47.7 302.7 -46.4 L 302.7 -46.4 L 302.7 -46.4 Q 300.4 -45.1 297.8 -45.1 L 297.8 -45.1 L 297.8 -45.1 Q 295.2 -45.1 293.4 -46.1 L 293.4 -46.1 L 293.4 -46.1 Q 291.6 -47.1 291.1 -48.7 L 291.1 -48.7 L 291.1 -48.7 Q 290.1 -47.1 287.9 -46.1 L 287.9 -46.1 L 287.9 -46.1 Q 285.7 -45.1 282.8 -45.1 L 282.8 -45.1 L 282.8 -45.1 Q 279.9 -45.1 277.6 -45.9 L 277.6 -45.9 L 277.6 -45.9 Q 275.2 -46.6 273.7 -48.3 Z M 287.2 -74.3 L 287.2 -74.3 L 287.2 -74.3 Q 286.5 -73.1 285.8 -71.2 L 285.8 -71.2 L 285.8 -71.2 Q 285.2 -69.2 284.1 -64 L 284.1 -64 L 284.1 -64 Q 283.1 -58.8 283.1 -55.1 L 283.1 -55.1 L 283.1 -55.1 Q 283.1 -51.4 283.6 -50.3 L 283.6 -50.3 L 283.6 -50.3 Q 284.2 -49.2 285.2 -49.2 L 285.2 -49.2 L 285.2 -49.2 Q 287.3 -49.2 288.8 -51.1 L 288.8 -51.1 L 288.8 -51.1 Q 290.3 -53.1 290.9 -56.6 L 290.9 -56.6 L 294.3 -75.3 L 294.3 -75.3 Q 292.9 -76.5 291.3 -76.5 L 291.3 -76.5 L 291.3 -76.5 Q 289.8 -76.5 288.9 -75.9 L 288.9 -75.9 L 288.9 -75.9 Q 287.9 -75.4 287.2 -74.3 Z M 326.4 -49.9 L 326.4 -49.9 L 326.4 -49.9 Q 324.4 -45.1 318.1 -45.1 L 318.1 -45.1 L 318.1 -45.1 Q 314.9 -45.1 312.8 -47.3 L 312.8 -47.3 L 312.8 -47.3 Q 311.2 -49.2 311.2 -51.3 L 311.2 -51.3 L 311.2 -51.3 Q 311.2 -56.1 313.4 -66.6 L 313.4 -66.6 L 318.1 -91.2 L 331.1 -92.5 L 324.9 -60.1 L 324.9 -60.1 Q 323.8 -55.3 323.8 -53.7 L 323.8 -53.7 L 323.8 -53.7 Q 323.8 -50 326.4 -49.9 Z M 347.1 -49.9 L 347.1 -49.9 L 347.1 -49.9 Q 345.1 -45.1 338.8 -45.1 L 338.8 -45.1 L 338.8 -45.1 Q 335.6 -45.1 333.6 -47.3 L 333.6 -47.3 L 333.6 -47.3 Q 331.9 -49.2 331.9 -51.3 L 331.9 -51.3 L 331.9 -51.3 Q 331.9 -56.1 334.1 -66.6 L 334.1 -66.6 L 338.8 -91.2 L 351.8 -92.5 L 345.6 -60.1 L 345.6 -60.1 Q 344.5 -55.3 344.5 -53.7 L 344.5 -53.7 L 344.5 -53.7 Q 344.5 -50 347.1 -49.9 Z M 378.5 -57.2 L 378.5 -57.2 L 378.5 -57.2 Q 380.1 -56.1 380.1 -53.7 L 380.1 -53.7 L 380.1 -53.7 Q 380.1 -51.3 378.9 -49.8 L 378.9 -49.8 L 378.9 -49.8 Q 377.7 -48.2 375.7 -47.2 L 375.7 -47.2 L 375.7 -47.2 Q 371.6 -45.1 367.2 -45.1 L 367.2 -45.1 L 367.2 -45.1 Q 362.7 -45.1 360.1 -46.1 L 360.1 -46.1 L 360.1 -46.1 Q 357.6 -47 355.8 -48.8 L 355.8 -48.8 L 355.8 -48.8 Q 352.4 -52.2 352.4 -58.4 L 352.4 -58.4 L 352.4 -58.4 Q 352.4 -68.1 357.7 -74 L 357.7 -74 L 357.7 -74 Q 363.3 -80.3 373.1 -80.3 L 373.1 -80.3 L 373.1 -80.3 Q 379.2 -80.3 382.2 -77.7 L 382.2 -77.7 L 382.2 -77.7 Q 384.4 -75.8 384.4 -72.7 L 384.4 -72.7 L 384.4 -72.7 Q 384.4 -61.4 365 -61.4 L 365 -61.4 L 365 -61.4 Q 364.7 -59.8 364.7 -58.3 L 364.7 -58.3 L 364.7 -58.3 Q 364.7 -55.4 366 -54.3 L 366 -54.3 L 366 -54.3 Q 367.3 -53.2 369.8 -53.2 L 369.8 -53.2 L 369.8 -53.2 Q 372.2 -53.2 374.8 -54.3 L 374.8 -54.3 L 374.8 -54.3 Q 377.4 -55.4 378.5 -57.2 Z M 365.4 -64.2 L 365.4 -64.2 L 365.4 -64.2 Q 370 -64.2 372.6 -67 L 372.6 -67 L 372.6 -67 Q 375.2 -69.7 375.2 -74 L 375.2 -74 L 375.2 -74 Q 375.2 -75.4 374.7 -76.2 L 374.7 -76.2 L 374.7 -76.2 Q 374.1 -77 373 -77 L 373 -77 L 373 -77 Q 372 -77 371 -76.6 L 371 -76.6 L 371 -76.6 Q 370.1 -76.2 369.1 -74.8 L 369.1 -74.8 L 369.1 -74.8 Q 366.8 -71.6 365.4 -64.2 Z M 406.6 -64.4 L 406.6 -64.4 L 406.6 -64.4 Q 408.9 -68.5 408.9 -72.6 L 408.9 -72.6 L 408.9 -72.6 Q 408.9 -75.4 407 -75.4 L 407 -75.4 L 407 -75.4 Q 405.4 -75.4 403.8 -72.7 L 403.8 -72.7 L 403.8 -72.7 Q 402.2 -70.1 401.7 -66.7 L 401.7 -66.7 L 398.3 -46.4 L 385.1 -45.1 L 391.6 -79 L 402.2 -80.3 L 401 -73.8 L 401 -73.8 Q 404.1 -80.3 411.2 -80.3 L 411.2 -80.3 L 411.2 -80.3 Q 414.9 -80.3 416.9 -78.4 L 416.9 -78.4 L 416.9 -78.4 Q 418.9 -76.5 418.9 -72.5 L 418.9 -72.5 L 418.9 -72.5 Q 418.9 -68.6 416.3 -66.1 L 416.3 -66.1 L 416.3 -66.1 Q 413.7 -63.6 409.3 -63.6 L 409.3 -63.6 L 409.3 -63.6 Q 407.4 -63.6 406.6 -64.4 Z M 440.3 -53.6 L 440.3 -53.6 L 440.3 -53.6 Q 437 -50.2 430.9 -50.2 L 430.9 -50.2 L 430.9 -50.2 Q 423.3 -50.2 421.7 -55.7 L 421.7 -55.7 L 421.7 -55.7 Q 421.2 -57.4 421.2 -59.2 L 421.2 -59.2 L 421.2 -59.2 Q 421.2 -61.1 421.6 -63 L 421.6 -63 L 424.6 -79 L 437.6 -80.3 L 434 -61.7 L 434 -61.7 Q 433.9 -60.8 433.7 -59.9 L 433.7 -59.9 L 433.7 -59.9 Q 433.5 -59 433.5 -58.1 L 433.5 -58.1 L 433.5 -58.1 Q 433.5 -57.2 433.8 -56.6 L 433.8 -56.6 L 433.8 -56.6 Q 434.2 -56 434.6 -55.6 L 434.6 -55.6 L 434.6 -55.6 Q 435.4 -55.1 436.8 -55.1 L 436.8 -55.1 L 436.8 -55.1 Q 438.1 -55.1 439.3 -56.7 L 439.3 -56.7 L 439.3 -56.7 Q 440.5 -58.4 441.1 -61.3 L 441.1 -61.3 L 444.6 -79 L 457.2 -80.3 L 452.4 -55.1 L 452.4 -55.1 Q 450 -42.9 445.2 -38 L 445.2 -38 L 445.2 -38 Q 442.7 -35.5 439.4 -34.5 L 439.4 -34.5 L 439.4 -34.5 Q 436.2 -33.5 432.1 -33.5 L 432.1 -33.5 L 432.1 -33.5 Q 425.3 -33.5 421.5 -35.6 L 421.5 -35.6 L 421.5 -35.6 Q 417.7 -37.7 417.7 -41.3 L 417.7 -41.3 L 417.7 -41.3 Q 417.7 -43.9 419.6 -45.4 L 419.6 -45.4 L 419.6 -45.4 Q 421.6 -46.9 424.7 -46.9 L 424.7 -46.9 L 424.7 -46.9 Q 427.4 -46.9 429.4 -45.7 L 429.4 -45.7 L 429.4 -45.7 Q 430.6 -45 431.2 -44.1 L 431.2 -44.1 L 431.2 -44.1 Q 429.7 -42.9 429.7 -40.7 L 429.7 -40.7 L 429.7 -40.7 Q 429.7 -37.9 432.3 -37.9 L 432.3 -37.9 L 432.3 -37.9 Q 436.5 -37.9 439 -47.7 L 439 -47.7 L 439 -47.7 Q 439.7 -50.5 440.3 -53.6 Z" fill="url(#editing-gradient-gradient)"></path></g></g><style>text {
  font-size: 64px;
  font-family: Arial Black;
  dominant-baseline: central;
  text-anchor: middle;
}</style></svg>